<svg xmlns="http://www.w3.org/2000/svg" version="1.1" xmlns:xlink="http://www.w3.org/1999/xlink" xmlns:svgjs="http://svgjs.dev/svgjs" width="128" height="128" viewBox="0 0 128 128"><g transform="matrix(0.8046875,0,0,0.8046875,12.221578124999994,13.950511361128832)"><svg viewBox="0 0 96 93" data-background-color="#ffffff" preserveAspectRatio="xMidYMid meet" height="124" width="128" xmlns="http://www.w3.org/2000/svg" xmlns:xlink="http://www.w3.org/1999/xlink"><g id="tight-bounds" transform="matrix(1,0,0,1,0.25950000000000273,0.14806708088963205)"><svg viewBox="0 0 95.481 92.70386583822072" height="92.70386583822072" width="95.481"><g><svg viewBox="0 0 95.481 92.70386583822072" height="92.70386583822072" width="95.481"><g><svg viewBox="0 0 95.481 92.70386583822072" height="92.70386583822072" width="95.481"><g id="textblocktransform"><svg viewBox="0 0 95.481 92.70386583822072" height="92.70386583822072" width="95.481" id="textblock"><g><svg viewBox="0 0 95.481 92.70386583822072" height="92.70386583822072" width="95.481"><g><svg viewBox="0 0 95.481 92.70386583822072" height="92.70386583822072" width="95.481"><g><svg xmlns="http://www.w3.org/2000/svg" xmlns:xlink="http://www.w3.org/1999/xlink" version="1.1" x="0" y="0" viewBox="12.441892751305488 13.8 75.45810724869452 73.26335345030998" style="enable-background:new 0 0 100 100;" xml:space="preserve" height="92.70386583822072" width="95.481" class="icon-icon-0" data-fill-palette-color="accent" id="icon-0"><g fill="#4d331f" data-fill-palette-color="accent"><g fill="#4d331f" data-fill-palette-color="accent"><g fill="#4d331f" data-fill-palette-color="accent"><path d="M54.3 36.6C55.7 37 57 37.5 58.3 38.1L59 34.4 58.9 34.3C58.7 34.1 58.5 33.8 58.2 33.6z" fill="#4d331f" data-fill-palette-color="accent"></path></g><g fill="#4d331f" data-fill-palette-color="accent"><path d="M53 36.2C53.4 36.3 53.8 36.5 54.2 36.6L57.7 33.2C56.9 32.4 56.1 31.5 55.3 30.7L51.6 32.7 54.9 30.3C54.1 29.5 53.3 28.7 52.6 27.8L49.5 28.3 52.1 27.3 49.4 24.3C50.4 25.2 51.5 26.2 52.5 27.1H52.6V27.2L53.2 27.8 54.2 25.2 53.7 28.3C54.5 29.1 55.4 29.9 56.2 30.6L58.6 27.3 56.6 31C57.4 31.8 58.2 32.6 59.1 33.4 59.9 30.3 61.1 27.5 62.4 24.9 56 21.9 49.4 21.3 47.1 21.2 46.7 21.2 46.3 21.5 46.3 22 46.4 24 46.8 29.5 49.1 35.2 50.4 35.5 51.7 35.9 53 36.2" fill="#4d331f" data-fill-palette-color="accent"></path></g><g fill="#4d331f" data-fill-palette-color="accent"><path d="M86.1 42.2C86.1 28.5 76.4 17 73.7 14.1 73.3 13.7 72.7 13.7 72.3 14.1 69.8 16.8 61.4 26.8 60.1 39.1 64 41 67.4 43.2 70.3 45.6L72.4 45.5V40.3L63.9 39.9 72.5 39.5V35L65.9 34.2 72.5 34.3C72.5 32.8 72.6 31.4 72.6 29.9L67.6 28.3 72.7 29.1C72.8 27.7 72.8 26.3 72.8 24.8L69.6 22.5 72.8 24C72.9 22.3 72.9 20.7 73 19 73.1 20.7 73.2 22.5 73.2 24.2H73.3L73.2 24.3C73.2 24.6 73.2 25 73.3 25.3L76.5 23.9 73.3 26.2C73.4 27.6 73.4 29 73.4 30.5L78.4 29.7 73.4 31.2C73.4 32.7 73.5 34.1 73.5 35.6H80.1L73.5 36.4V40.9L82 41.3 73.5 41.7V46.9L81 47.3 73.4 47.7V48.7C74.9 50.2 76.2 51.8 77.2 53.3L80.1 53.5 77.4 53.7C77.7 54.1 77.9 54.4 78.1 54.8L78.5 55.5C78.7 55.8 78.9 56.2 79 56.5 79.7 58 80.2 59.4 80.5 60.7 83.5 55.6 86.1 49.2 86.1 42.2" fill="#4d331f" data-fill-palette-color="accent"></path></g><g fill="#4d331f" data-fill-palette-color="accent"><path d="M76.6 55.9C72.8 49.4 64.1 41.8 52.3 38.2 41.9 35 32.6 36.2 28 37.1 25.8 37.5 23.5 38.2 21.4 39.1 21.3 39.1 21.3 39.1 21.2 39.2 18 40.5 15.3 42.4 14.4 44.6 13.6 46.6 14.5 49.7 16.6 53 16.7 53.1 16.7 53.2 16.8 53.3 17.9 55.1 19.4 56.9 21.1 58.7 22.8 57.5 24.7 56.4 26.7 55.4 23.9 53.9 21.4 52.4 19.5 51 19.3 50.7 19.1 50.4 19 50.1 21.6 51.2 25.1 52.6 29.4 54.2 31.1 53.5 32.8 52.9 34.7 52.3 27.3 49.7 21.6 47.4 18.6 46 22.5 46.6 30.6 48.3 40.4 51 40.7 50.9 40.9 50.9 41.2 50.9 43.5 50.6 46 50.4 48.4 50.4 49.2 50.4 50.1 50.4 50.9 50.5 49.9 50.2 49 49.9 48.1 49.6 37.1 46.3 27.4 44 21.7 43 22 42.9 22.2 42.7 22.5 42.6 28.1 42.4 38.3 43.3 49.4 46.7 55.9 48.7 61.6 51.1 66.1 53.5 71.7 55.5 76.3 58.3 78.6 61.4 78.4 60.2 78 58.9 77.3 57.5 77.2 56.8 76.9 56.4 76.6 55.9M50.5 43.1C45.1 41.5 39.9 40.4 35.3 39.7 40.2 39.4 45.7 39.9 51.3 41.6S61.7 46 65.6 49C61.4 47 56.3 44.9 50.5 43.1" fill="#4d331f" data-fill-palette-color="accent"></path></g><g fill="#4d331f" data-fill-palette-color="accent"><path d="M41.5 52.9C28.6 54.8 18.7 61.8 14.5 68 12.8 70.5 12.1 72.8 12.6 74.7 13.6 79 24 85.2 36.8 86.7 40.8 87.2 45 87.2 49.2 86.6 61.9 84.8 71.9 77.5 76.2 71.2 77.4 69.5 78.6 67 78.1 64.9 76.7 58.4 59.3 50.3 41.5 52.9M42.1 56.4C46.3 55.8 50.4 55.8 54.2 56.3 55.6 56.5 57 56.7 58.4 57 53.7 57 48.4 57.3 42.8 58.1 36.9 59 31.5 60.3 27 61.7 31.2 59.2 36.3 57.2 42.1 56.4M17.4 69.9C17.6 69.6 17.8 69.4 18 69.1 22.6 66.6 31.8 63.1 43.3 61.5 55 59.8 65.4 60.5 70.8 61.6 71 61.8 71.3 61.9 71.5 62.1 65.8 62.3 55.8 63 44.4 64.7 32.7 66.3 22.8 68.5 17.4 69.9M48.7 83C43.1 83.8 37.6 83.4 32.9 82.4 37.5 82.4 42.6 82.1 48 81.4 53.7 80.6 58.8 79.3 63.2 78 59.1 80.3 54.2 82.2 48.7 83M72.3 70.6C67.5 73.1 58.6 76.3 47.5 77.9 36.2 79.5 26.3 79 20.6 77.9 20.3 77.7 20 77.5 19.7 77.4 25.5 77.2 35.3 76.4 46.4 74.8 57.1 73.2 67.2 71.2 73 69.6 72.8 69.9 72.5 70.2 72.3 70.6M45.9 71.3C32.6 73.2 21.4 73.9 16.7 73.9 21.2 72.5 31.8 70.1 44.8 68.2 58.2 66.3 69.4 65.5 74 65.6 69.7 66.9 59.1 69.4 45.9 71.3" fill="#4d331f" data-fill-palette-color="accent"></path></g><g fill="#4d331f" data-fill-palette-color="accent"><path d="M87.7 63.2C87.5 62.1 87 61.8 85.9 62.1 85.1 62.3 84.4 62.6 83.6 62.9 81.6 63.8 79.9 63.2 79.8 63.2 80.7 65 80.3 66.6 80.3 66.6 80.5 66.5 81.3 66.1 81.6 66 82.6 65.5 83.7 65.6 84.9 65.7 85.5 65.8 86.2 65.8 86.8 65.8 87.6 65.8 87.9 65.4 87.9 64.6 87.9 64.1 87.8 63.6 87.7 63.2" fill="#4d331f" data-fill-palette-color="accent"></path></g></g></g></svg></g></svg></g></svg></g></svg></g></svg></g><g></g></svg></g><defs></defs></svg><rect width="95.481" height="92.70386583822072" fill="none" stroke="none" visibility="hidden"></rect></g></svg></g></svg>