<svg xmlns="http://www.w3.org/2000/svg" version="1.1" xmlns:xlink="http://www.w3.org/1999/xlink" xmlns:svgjs="http://svgjs.dev/svgjs" width="1500" height="1500" viewBox="0 0 1500 1500"><rect width="1500" height="1500" fill="#000000"></rect><g transform="matrix(0.6666666666666666,0,0,0.6666666666666666,249.85778443113782,249.85778443113765)"><svg viewBox="0 0 334 334" data-background-color="#ffffff" preserveAspectRatio="xMidYMid meet" height="1500" width="1500" xmlns="http://www.w3.org/2000/svg" xmlns:xlink="http://www.w3.org/1999/xlink"><g id="tight-bounds" transform="matrix(1,0,0,1,0.04749999999998522,0.04750000000001364)"><svg viewBox="0 0 333.90454557049503 333.90454557049503" height="333.90454557049503" width="333.90454557049503"><g><svg></svg></g><g><svg viewBox="0 0 333.90454557049503 333.90454557049503" height="333.90454557049503" width="333.90454557049503"><g><path d="M0 166.952c0-92.205 74.747-166.952 166.952-166.952 92.205 0 166.952 74.747 166.953 166.952 0 92.205-74.747 166.952-166.953 166.953-92.205 0-166.952-74.747-166.952-166.953zM166.952 328.709c89.335 0 161.756-72.421 161.757-161.757 0-89.335-72.421-161.756-161.757-161.756-89.335 0-161.756 72.421-161.756 161.756 0 89.335 72.421 161.756 161.756 161.757z" data-fill-palette-color="tertiary" fill="#ffffff" stroke="transparent"></path><ellipse rx="160.27418187383762" ry="160.27418187383762" cx="166.95227278524752" cy="166.95227278524752" fill="#ffffff" stroke="transparent" stroke-width="0" fill-opacity="1" data-fill-palette-color="tertiary"></ellipse></g><g transform="matrix(1,0,0,1,71.17305217166896,71.17305217166896)"><svg viewBox="0 0 191.55844122715712 191.55844122715712" height="191.55844122715712" width="191.55844122715712"><g><svg viewBox="0 0 191.55844122715712 191.55844122715712" height="191.55844122715712" width="191.55844122715712"><g><svg viewBox="0 0 191.55844122715712 191.55844122715712" height="191.55844122715712" width="191.55844122715712"><g id="textblocktransform"><svg viewBox="0 0 191.55844122715712 191.55844122715712" height="191.55844122715712" width="191.55844122715712" id="textblock"><g><svg viewBox="0 0 191.55844122715712 191.55844122715712" height="191.55844122715712" width="191.55844122715712"><g transform="matrix(1,0,0,1,64.71193396444939,61.91615241726668)"><svg viewBox="0 0 62.134573298258346 67.72613639262376" height="67.72613639262376" width="62.134573298258346"><g id="icon-0"><svg xmlns="http://www.w3.org/2000/svg" xmlns:xlink="http://www.w3.org/1999/xlink" version="1.1" x="0" y="0" viewBox="3.492396874095187 0.525 65.11520625180962 70.975" enable-background="new 0 0 72 72" xml:space="preserve" height="67.72613639262376" width="62.134573298258346" class="icon-jxe-0" data-fill-palette-color="quaternary" id="jxe-0"><g fill="#ffffff" data-fill-palette-color="quaternary"><path fill="#000000" d="M33.2 41.9L32.5 40.6C32.1 39.8 31.2 39.4 30.4 39.5 15.7 42 4.5 54.3 3.5 69.4 3.4 70.5 4.3 71.5 5.4 71.5H29.2C30.2 71.5 31 70.7 31.1 69.8L33.5 43C33.5 42.6 33.4 42.2 33.2 41.9" data-fill-palette-color="quaternary"></path><path fill="#000000" d="M61.4 10.4L36.4 0.6C36.1 0.5 35.8 0.5 35.5 0.6L10.5 10.4C9.5 10.8 9.5 12.2 10.5 12.6L21.4 16.9C21.7 17 21.9 17.4 21.8 17.8 21.3 19.7 21.2 21.8 21.6 24 22.7 30.5 28 35.3 34.5 36 43.2 36.8 50.5 30 50.5 21.5 50.5 20.2 50.3 18.9 50 17.8 49.9 17.5 50.1 17.2 50.4 17.1L54.4 15.5C54.9 15.3 55.4 15.7 55.4 16.2V19.3C55.4 19.6 55.2 19.9 54.8 19.9H54.6C54.3 19.9 54 20.1 54 20.5V24.4C54 24.8 54.3 25.1 54.7 25.1H59.1C59.5 25.1 59.8 24.8 59.8 24.4V20.5C59.8 20.2 59.6 19.9 59.2 19.9H59C58.7 19.9 58.4 19.7 58.4 19.3V14.3C58.4 14 58.6 13.7 58.9 13.6L61.3 12.7C62.5 12.3 62.5 10.8 61.4 10.4M47.2 25.2C45.7 29.9 41.2 33.4 36 33.4 31 33.4 26.6 30.3 24.9 25.8 24.8 25.5 25 25.1 25.3 25 27.8 24 30.5 22.5 32.9 20.2 33.1 20 33.5 20 33.8 20.2 36 22.3 39.7 24.5 45.4 24.5H46.6C47 24.3 47.3 24.8 47.2 25.2" data-fill-palette-color="quaternary"></path><path fill="#000000" d="M41.6 39.4C40.7 39.2 39.9 39.7 39.5 40.5L38.8 41.8C38.6 42.2 38.5 42.6 38.6 43L41 69.7C41.1 70.7 41.9 71.4 42.9 71.4H66.7C67.8 71.4 68.7 70.5 68.6 69.3 67.5 54.3 56.3 42 41.6 39.4M56.1 60C56.1 60.4 55.8 60.7 55.4 60.7H45.8C45.4 60.7 45.1 60.4 45.1 60V57.8C45.1 57.4 45.4 57.1 45.8 57.1H55.4C55.8 57.1 56.1 57.4 56.1 57.8z" data-fill-palette-color="quaternary"></path></g></svg></g></svg></g><g id="text-0"><path d="M19.192 71.12v0c-0.304 0.94-0.64 1.682-1.008 2.227-0.374 0.543-0.73 0.943-1.067 1.202-0.338 0.258-0.604 0.426-0.799 0.504v0l-2.154-1.758c0.435-0.276 0.9-0.662 1.393-1.159 0.5-0.495 0.876-1.133 1.128-1.913v0c0.199-0.614 0.211-1.087 0.036-1.419-0.171-0.324-0.403-0.533-0.697-0.628v0c-0.403-0.13-0.86 0.029-1.373 0.477-0.508 0.457-1.042 1.004-1.603 1.642v0c-0.335 0.379-0.729 0.767-1.182 1.164-0.447 0.399-0.971 0.696-1.571 0.89-0.6 0.194-1.28 0.168-2.041-0.078v0c-1.164-0.377-1.956-1.104-2.377-2.18-0.421-1.076-0.378-2.397 0.129-3.963v0c0.325-1.004 0.75-1.802 1.274-2.396 0.526-0.6 0.943-0.98 1.25-1.142v0l2.044 1.637c-0.366 0.256-0.75 0.605-1.155 1.046-0.398 0.443-0.693 0.962-0.885 1.557v0c-0.213 0.658-0.275 1.144-0.186 1.455 0.088 0.318 0.32 0.538 0.698 0.661v0c0.428 0.139 0.851 0.022 1.269-0.352 0.426-0.378 0.872-0.848 1.336-1.411v0c0.772-0.944 1.575-1.644 2.408-2.102 0.833-0.458 1.723-0.533 2.67-0.226v0c0.71 0.23 1.319 0.607 1.827 1.132 0.514 0.527 0.845 1.217 0.992 2.07 0.15 0.847 0.031 1.868-0.356 3.063z" fill="#000000" data-fill-palette-color="quaternary"></path><path d="M61.922 23.604l-2.938 1.306-8.41-18.909 2.938-1.307 4.125 9.275 1.197 2.965 1.277-7.375 3.537-1.573-1.793 7.627 7.73 4.582-3.758 1.672-6.673-4.215 1.449 2.986z" fill="#000000" data-fill-palette-color="quaternary"></path><path d="M128.318 24.224v0c-1.247-0.57-1.982-1.386-2.206-2.449-0.23-1.066-0.025-2.298 0.615-3.698v0l3.725-8.151 3.099 1.416-3.604 7.885c-0.307 0.672-0.438 1.281-0.391 1.827 0.055 0.542 0.379 0.949 0.972 1.221v0c0.587 0.268 1.174 0.278 1.76 0.028 0.59-0.255 1.038-0.719 1.345-1.391v0l3.603-7.885 3.099 1.416-5.639 12.341-2.797-1.278 0.665-1.625c-0.526 0.343-1.142 0.59-1.846 0.742-0.696 0.148-1.496 0.015-2.4-0.399z" fill="#000000" data-fill-palette-color="quaternary"></path><path d="M171.937 74.534l-1.058-3.154 19.622-6.579 1.057 3.154z" fill="#000000" data-fill-palette-color="quaternary"></path><path d="M5.507 127.757v0c-0.331-1.009-0.506-1.864-0.524-2.565-0.027-0.706 0.026-1.278 0.157-1.718 0.127-0.431 0.251-0.744 0.371-0.939v0l2.97 0.16c-0.198 0.518-0.356 1.146-0.474 1.885-0.112 0.737-0.029 1.527 0.248 2.37v0c0.216 0.658 0.501 1.073 0.855 1.247 0.354 0.174 0.688 0.209 1.001 0.106v0c0.434-0.143 0.728-0.572 0.882-1.287 0.154-0.716 0.272-1.529 0.355-2.441v0c0.045-0.531 0.14-1.114 0.285-1.748 0.139-0.633 0.406-1.219 0.802-1.76 0.393-0.547 0.996-0.953 1.806-1.219v0c1.251-0.411 2.397-0.282 3.438 0.388 1.045 0.661 1.842 1.828 2.391 3.501v0c0.352 1.073 0.492 2.035 0.418 2.887-0.074 0.852-0.194 1.443-0.362 1.774v0l-2.811-0.127c0.163-0.45 0.279-0.993 0.345-1.631 0.067-0.637-0.005-1.275-0.214-1.914v0c-0.231-0.702-0.484-1.16-0.759-1.374-0.277-0.22-0.62-0.263-1.03-0.129v0c-0.453 0.149-0.742 0.52-0.865 1.112-0.132 0.588-0.221 1.275-0.267 2.062v0c-0.074 1.305-0.327 2.417-0.761 3.337-0.425 0.925-1.145 1.554-2.16 1.888v0c-0.76 0.25-1.529 0.308-2.309 0.174-0.773-0.135-1.495-0.524-2.165-1.166-0.662-0.638-1.203-1.596-1.623-2.873z" fill="#000000" data-fill-palette-color="quaternary"></path><path d="M56.316 183.226l-3.152-1.397 8.988-20.285 3.152 1.397-4.41 9.953-1.495 3.076 6.778-4.274 3.788 1.678-7.353 4.053 1.916 9.438-4.028-1.785-1.444-8.336-1.331 3.302z" fill="#000000" data-fill-palette-color="quaternary"></path><path d="M134.4 183.136v0c-1.333 0.608-2.513 0.629-3.538 0.063-1.02-0.569-1.871-1.599-2.552-3.091v0l-3.986-8.74 3.32-1.515 3.853 8.447c0.332 0.728 0.734 1.261 1.206 1.599 0.478 0.336 1.035 0.359 1.671 0.069v0c0.63-0.287 1.048-0.755 1.254-1.403 0.213-0.651 0.153-1.34-0.178-2.068v0l-3.853-8.447 3.32-1.514 6.032 13.225-2.999 1.368-0.846-1.686c-0.09 0.676-0.322 1.351-0.695 2.023-0.373 0.672-1.042 1.229-2.009 1.67z" fill="#000000" data-fill-palette-color="quaternary"></path><path d="M185.213 124.091l-1.147 3.369-21.002-7.155 1.147-3.368z" fill="#000000" data-fill-palette-color="quaternary"></path><path d="M0 96.988c0-4.366 3.539-7.906 7.906-7.905 4.366 0 7.906 3.539 7.905 7.905 0 4.366-3.539 7.906-7.905 7.906-4.366 0-7.906-3.539-7.906-7.906z" fill="#000000" data-fill-palette-color="quaternary"></path><path d="M173.795 96.988c0-4.366 3.539-7.906 7.906-7.905 4.366 0 7.906 3.539 7.905 7.905 0 4.366-3.539 7.906-7.905 7.906-4.366 0-7.906-3.539-7.906-7.906z" fill="#000000" data-fill-palette-color="quaternary"></path></g><g id="text-1"></g></svg></g></svg></g></svg></g><g></g></svg></g></svg></g></svg></g><defs></defs></svg><rect width="333.90454557049503" height="333.90454557049503" fill="none" stroke="none" visibility="hidden"></rect></g></svg></g></svg>